<?xml version="1.0" standalone="no"?>
<!DOCTYPE svg PUBLIC "-//W3C//DTD SVG 20010904//EN"
 "http://www.w3.org/TR/2001/REC-SVG-20010904/DTD/svg10.dtd">
<svg version="1.0" xmlns="http://www.w3.org/2000/svg"
 width="274.000000pt" height="196.000000pt" viewBox="0 0 274.000000 196.000000"
 preserveAspectRatio="xMidYMid meet">

<g transform="translate(0.000000,196.000000) scale(0.100000,-0.100000)"
fill="#000000" stroke="none">
<path d="M1807 1763 c-4 -3 -2 -14 3 -23 8 -15 6 -17 -13 -13 -20 4 -20 3 6
-21 18 -17 23 -26 13 -26 -8 0 -17 -6 -19 -12 -3 -7 -6 -4 -6 8 -1 27 -19 43
-42 37 -20 -5 -27 -23 -9 -23 6 0 10 -4 10 -10 0 -5 -7 -7 -15 -4 -25 10 -17
-5 13 -20 26 -15 26 -15 4 -16 -32 0 -23 -24 11 -28 15 -2 27 -10 27 -18 0 -8
6 -14 14 -14 8 0 17 -6 19 -12 3 -7 6 1 6 19 1 17 -5 33 -11 36 -10 3 -10 8
-2 16 12 13 47 4 39 -9 -3 -5 6 -20 19 -33 21 -21 26 -23 30 -9 2 10 2 -1 -1
-23 -6 -45 -10 -55 -23 -55 -5 0 -6 15 -3 34 6 41 -10 54 -34 27 l-17 -20 -33
20 c-18 11 -33 17 -33 14 0 -4 -6 -3 -12 2 -7 6 -22 13 -32 17 -17 6 -17 5 -5
-10 12 -15 12 -16 -8 -10 -25 8 -42 -11 -19 -20 9 -3 13 -10 10 -15 -7 -13 23
-11 48 2 16 9 19 8 13 -2 -6 -9 0 -11 23 -6 25 5 34 2 42 -13 5 -10 10 -25 9
-32 0 -7 -4 -3 -9 10 -13 30 -34 29 -28 -3 3 -13 0 -26 -6 -29 -6 -2 0 -8 13
-13 17 -7 21 -12 12 -17 -7 -5 -20 3 -32 18 -22 28 -42 35 -33 11 4 -8 2 -15
-4 -15 -5 0 -12 7 -16 15 -3 8 -13 15 -22 15 -10 0 -14 -5 -10 -15 3 -8 1 -15
-3 -15 -5 0 -11 5 -13 11 -2 5 -11 7 -20 4 -20 -8 -12 -45 9 -45 9 0 13 -6 9
-15 -7 -18 2 -18 34 0 32 18 46 19 31 1 -13 -15 1 -32 17 -22 5 3 9 -1 9 -9 0
-17 -23 -20 -32 -5 -3 6 -11 10 -16 10 -6 0 -7 -4 -4 -10 3 -5 0 -10 -7 -10
-8 0 -6 -5 5 -11 9 -6 15 -14 12 -20 -10 -15 7 -10 28 9 20 16 20 16 14 -2 -4
-10 -3 -24 3 -31 8 -9 6 -14 -5 -19 -9 -3 -18 1 -21 9 -9 21 -25 19 -17 -2 4
-12 -3 -8 -20 10 -29 30 -42 35 -33 12 4 -12 0 -14 -21 -9 -17 5 -24 3 -20 -3
4 -6 -1 -14 -10 -17 -14 -6 -13 -9 7 -23 18 -13 27 -14 41 -4 24 14 24 4 2
-21 -15 -17 -15 -20 -3 -28 12 -8 10 -10 -7 -10 -13 0 -23 -4 -23 -10 0 -5 4
-10 10 -10 5 0 6 -7 3 -17 -4 -11 -3 -14 5 -9 7 4 12 2 12 -3 0 -6 5 -11 10
-11 6 0 10 7 10 15 0 8 5 15 11 15 6 0 8 -7 5 -16 -4 -10 -1 -14 6 -12 7 3 15
16 18 29 3 15 13 25 28 27 26 4 28 -5 7 -35 -12 -17 -12 -23 -2 -27 9 -5 9 -7
-1 -12 -15 -7 -6 -24 14 -24 8 0 14 7 14 16 0 8 4 13 10 9 5 -3 8 7 5 24 -2
19 2 31 11 35 8 3 14 -1 14 -9 0 -18 36 -39 45 -25 3 5 1 19 -5 30 -10 18 -8
20 20 20 l31 0 -3 -164 -3 -164 40 -4 c22 -2 50 -2 62 0 18 3 21 8 13 22 -6
10 -10 84 -10 164 0 143 0 146 24 161 13 9 33 17 45 18 24 1 36 26 21 41 -7 7
-10 5 -10 -6 0 -10 -12 -17 -32 -21 -41 -6 -48 -2 -48 30 0 22 3 24 26 19 19
-5 24 -3 18 5 -12 20 57 2 72 -19 9 -11 13 -13 14 -4 0 7 5 10 10 7 6 -4 17
-2 25 5 10 8 17 6 29 -12 11 -16 13 -24 5 -27 -6 -2 -14 1 -18 7 -4 7 -17 9
-33 4 -24 -6 -25 -9 -13 -26 8 -10 18 -15 23 -12 6 3 15 -8 21 -24 5 -17 15
-30 22 -30 6 0 9 7 5 15 -7 20 4 19 21 -2 9 -12 16 -14 19 -7 3 7 15 10 27 7
22 -5 22 -4 -2 15 -18 15 -21 21 -10 25 8 3 1 6 -16 6 -18 1 -25 4 -18 9 8 5
9 13 3 22 -16 25 -11 34 8 17 19 -18 47 -23 38 -8 -3 5 4 11 16 14 18 5 19 9
9 21 -7 8 -20 12 -29 9 -15 -6 -16 -5 -2 12 14 17 13 18 -19 12 -29 -6 -32 -5
-21 8 6 8 8 20 4 26 -5 8 -1 11 12 7 11 -3 25 1 32 9 10 10 10 13 -3 13 -8 0
-15 5 -15 10 0 6 -11 8 -27 4 -23 -5 -26 -4 -15 7 28 30 -3 33 -39 2 -17 -14
-29 -8 -29 14 0 7 8 13 19 13 10 0 25 8 32 17 12 15 12 16 -4 10 -11 -4 -16
-3 -12 3 3 6 12 10 19 10 8 0 19 7 26 15 10 12 9 15 -5 15 -11 0 -15 5 -11 15
3 9 0 15 -9 15 -8 0 -15 -7 -15 -15 0 -8 -4 -15 -10 -15 -5 0 -10 7 -10 16 0
8 -4 12 -10 9 -5 -3 -10 -18 -10 -32 0 -22 -2 -24 -15 -13 -11 9 -13 16 -5 24
17 17 12 29 -10 23 -11 -3 -18 -1 -14 4 3 5 16 9 30 9 14 0 22 4 19 10 -4 6 7
10 24 10 31 0 42 14 19 24 -7 3 -1 3 15 0 16 -4 27 -2 27 5 0 6 -7 11 -16 11
-14 0 -15 2 -3 17 12 15 12 16 -3 10 -11 -4 -18 -2 -18 6 0 7 -10 1 -21 -13
-20 -24 -21 -24 -16 -2 8 33 -7 27 -22 -10 -7 -19 -15 -27 -18 -20 -2 6 -10 9
-16 5 -7 -3 -2 5 11 19 12 13 22 27 22 30 0 3 -10 4 -22 0 -20 -5 -21 -4 -10
11 16 19 8 39 -13 30 -8 -3 -15 -17 -15 -32 l-1 -26 -14 27 c-11 19 -20 25
-37 22 -20 -5 -19 -3 5 11 28 16 38 41 12 31 -10 -3 -15 1 -15 12 -1 16 -2 16
-14 -1 -9 -12 -16 -14 -21 -7 -12 19 -26 0 -14 -21 14 -27 3 -38 -15 -14 -8
11 -18 15 -26 10 -10 -6 -12 -4 -7 8 3 9 -1 18 -9 21 -23 9 -24 8 -24 -15 0
-11 -4 -17 -10 -14 -13 8 -13 -21 1 -47 9 -18 9 -20 -4 -15 -10 4 -18 -1 -21
-11 -3 -9 -3 3 0 27 4 41 3 43 -12 30 -16 -13 -16 -12 -5 9 13 24 0 65 -13 43
-5 -7 -13 -8 -25 -1 -10 5 -21 7 -24 3z m178 -101 c3 -27 1 -42 -6 -42 -6 0
-9 -9 -6 -20 3 -10 0 -21 -7 -24 -6 -2 -2 -5 9 -5 11 -1 30 -13 42 -28 13 -14
23 -21 23 -15 0 6 7 9 15 6 8 -4 15 -12 15 -20 0 -8 -6 -11 -15 -8 -10 4 -15
0 -15 -13 0 -21 -27 -63 -41 -63 -5 0 -9 13 -9 29 0 24 3 28 20 24 25 -7 26
14 1 44 -12 14 -27 21 -40 18 -44 -8 -55 -29 -21 -38 15 -4 20 -14 20 -36 0
-38 -21 -41 -44 -6 -13 20 -15 33 -7 61 5 20 7 42 4 50 -3 7 2 17 11 20 9 3
13 10 10 16 -3 5 2 18 11 28 17 18 17 20 1 26 -16 6 -16 8 0 25 21 24 22 23
29 -29z m89 -4 c9 -36 6 -44 -8 -25 -20 26 -31 2 -12 -25 21 -29 20 -33 -4
-35 -15 -1 -20 4 -20 24 0 21 -2 24 -15 13 -10 -8 -15 -9 -15 -2 0 6 8 15 17
21 10 5 15 13 11 17 -7 7 19 33 33 34 4 0 9 -10 13 -22z m51 -77 c-3 -6 -14
-11 -23 -11 -15 1 -15 2 2 15 21 16 32 13 21 -4z m-25 -51 c0 -5 -4 -10 -10
-10 -5 0 -10 5 -10 10 0 6 5 10 10 10 6 0 10 -4 10 -10z m-224 -56 c-2 -6 4
-14 14 -17 20 -5 48 -53 37 -63 -3 -4 -18 -3 -32 0 -18 5 -27 15 -32 36 -3 17
-9 30 -14 30 -10 0 -12 34 -2 43 9 10 35 -14 29 -29z m266 11 c-2 -14 -8 -25
-13 -25 -5 0 -9 -7 -9 -15 0 -8 9 -15 21 -15 11 0 17 -4 14 -10 -11 -18 -35
-10 -41 15 -6 26 -31 52 -40 42 -12 -12 -11 -59 2 -64 24 -9 4 -23 -32 -23
-33 0 -45 12 -24 25 6 4 19 24 30 45 19 38 33 46 76 49 17 1 20 -3 16 -24z
m-297 -65 c3 -5 1 -10 -4 -10 -6 0 -11 5 -11 10 0 6 2 10 4 10 3 0 8 -4 11
-10z m15 -31 c0 -5 9 -9 20 -9 11 0 20 -4 20 -10 0 -13 -4 -13 -46 5 -19 8
-38 14 -42 14 -18 -3 -33 2 -28 9 6 11 76 2 76 -9z m295 0 c4 -6 14 -8 22 -5
8 3 23 0 34 -7 19 -14 19 -14 0 -31 -15 -13 -20 -14 -23 -4 -4 11 -8 10 -21
-1 -11 -9 -17 -10 -17 -2 0 6 -6 11 -13 11 -7 0 -22 7 -33 15 -16 13 -17 16
-4 25 20 13 47 13 55 -1z m-75 -29 c0 -16 -7 -20 -35 -20 -46 0 -48 27 -2 33
17 2 33 5 35 5 1 1 2 -7 2 -18z m-232 -13 c-16 -6 -28 -14 -28 -19 0 -4 -7 -8
-15 -8 -8 0 -15 4 -15 8 0 16 20 27 52 28 l33 2 -27 -11z m92 -31 c0 -19 -7
-42 -16 -51 -15 -14 -19 -14 -52 5 -25 15 -32 17 -22 6 17 -21 7 -30 -25 -22
-23 6 -24 9 -14 29 17 32 27 36 60 24 34 -13 44 -6 29 22 -9 19 -8 21 15 21
22 0 25 -4 25 -34z m-148 -51 c-3 -19 -10 -25 -31 -25 l-26 1 25 14 c14 8 21
14 17 15 -10 0 2 20 12 20 5 0 6 -11 3 -25z m-65 -20 c0 -8 -9 -15 -20 -15
-16 0 -17 3 -7 15 7 8 16 15 20 15 3 0 7 -7 7 -15z m148 -15 c-26 -11 -45 -12
-45 -2 0 4 15 8 33 9 26 2 28 0 12 -7z"/>
<path d="M2123 1240 c3 -11 -2 -25 -11 -32 -12 -10 -14 -10 -8 0 10 17 -1 32
-19 26 -8 -4 -12 -11 -8 -17 3 -5 -2 -16 -12 -24 -11 -7 -14 -13 -8 -13 6 0 9
-9 6 -20 -4 -14 0 -20 11 -20 10 0 16 8 16 22 0 12 3 18 7 15 3 -4 12 -2 18 3
9 8 14 2 19 -20 5 -26 8 -29 20 -18 11 10 11 16 2 27 -8 12 -8 13 2 7 16 -10
15 4 -3 48 -16 38 -41 51 -32 16z"/>
<path d="M1085 1210 c-19 -8 -19 -9 3 -9 22 -1 22 -3 22 -140 0 -102 -3 -141
-12 -144 -7 -3 7 -5 32 -5 25 0 37 2 28 5 -12 3 -18 15 -19 36 -1 18 -2 46 -3
62 -2 44 2 52 36 64 54 19 68 2 68 -84 0 -62 -3 -74 -17 -78 -10 -3 5 -5 32
-5 28 0 43 2 34 5 -21 5 -29 33 -29 105 0 83 -28 105 -90 73 -17 -9 -31 -12
-31 -8 -1 5 -2 35 -3 68 -1 63 -10 73 -51 55z"/>
<path d="M827 1184 c-15 -16 -6 -23 19 -14 14 6 36 10 50 10 l24 0 0 -129 c0
-126 -1 -130 -22 -134 -13 -2 6 -4 42 -5 41 0 56 3 40 7 -25 7 -25 8 -28 135
l-3 129 42 -6 c23 -3 46 -11 51 -19 7 -9 8 -8 6 7 -3 18 -12 20 -109 23 -58 1
-108 -1 -112 -4z"/>
<path d="M1384 1100 c-34 -14 -54 -50 -54 -100 1 -64 26 -95 78 -94 22 1 50 9
63 18 26 18 18 22 -12 5 -35 -18 -79 -1 -95 37 -8 18 -14 35 -14 37 0 2 29 12
65 22 36 9 65 21 65 27 0 14 -47 58 -62 57 -7 0 -23 -4 -34 -9z m56 -31 c14
-25 15 -23 -38 -36 -49 -13 -61 -3 -38 32 21 31 61 33 76 4z"/>
<path d="M1798 1002 c-4 -15 -1 -25 8 -29 8 -3 11 -9 8 -14 -3 -5 2 -9 10 -9
9 0 16 -4 16 -9 0 -5 9 -13 20 -16 11 -3 20 -10 20 -15 0 -6 -10 -6 -25 0 -14
5 -25 6 -25 3 0 -4 -5 -2 -12 5 -15 15 -32 16 -22 1 4 -7 0 -9 -14 -5 -13 4
-22 1 -25 -8 -7 -19 6 -28 27 -20 9 4 16 1 16 -6 0 -10 3 -10 14 -1 11 9 18 8
30 -5 16 -15 18 -15 31 2 18 24 18 26 0 60 -8 16 -15 37 -15 47 0 10 -4 15
-10 12 -5 -3 -10 1 -10 11 0 13 -3 14 -14 5 -11 -9 -15 -9 -18 1 -3 7 -7 2
-10 -10z m72 -112 c0 -5 -4 -10 -10 -10 -5 0 -10 5 -10 10 0 6 5 10 10 10 6 0
10 -4 10 -10z"/>
<path d="M2046 961 c-3 -5 -1 -23 5 -39 9 -27 15 -31 45 -28 18 1 36 5 40 8
10 10 -6 28 -24 28 -10 0 -23 9 -30 20 -13 21 -27 26 -36 11z"/>
<path d="M1168 813 c12 -2 22 -12 22 -21 0 -9 1 -70 3 -135 1 -88 -1 -117 -10
-117 -7 0 -13 -4 -13 -10 0 -5 18 -10 40 -10 22 0 40 5 40 10 0 6 -9 10 -20
10 -19 0 -20 7 -20 112 0 61 3 108 7 105 3 -4 28 -55 54 -115 26 -59 51 -107
54 -107 3 0 27 50 53 112 26 61 51 115 55 119 4 4 7 -45 7 -109 0 -97 -3 -117
-15 -117 -8 0 -15 -4 -15 -10 0 -5 23 -10 50 -10 28 0 50 5 50 10 0 6 -9 10
-20 10 -19 0 -20 7 -20 134 0 120 2 135 18 139 9 3 1 5 -19 6 l-36 1 -49 -121
-49 -121 -57 121 -57 121 -38 -1 c-23 -1 -29 -3 -15 -6z"/>
<path d="M1960 745 c-17 -19 -21 -29 -12 -32 8 -3 12 -29 12 -83 0 -100 4
-110 45 -110 42 0 56 17 18 22 -28 3 -28 4 -31 85 l-3 82 28 4 28 4 -27 2
c-21 1 -27 7 -30 27 l-3 26 -25 -27z"/>
<path d="M1569 701 c-24 -25 -29 -37 -29 -81 0 -62 30 -100 81 -100 94 0 144
107 83 179 -36 43 -93 44 -135 2z m86 13 c38 -15 58 -101 34 -147 -46 -88
-146 -5 -118 98 13 46 44 64 84 49z"/>
<path d="M1760 721 c0 -5 9 -11 20 -14 18 -5 20 -14 20 -82 0 -62 -3 -80 -17
-91 -16 -12 -12 -13 30 -14 26 0 47 5 47 10 0 6 -6 10 -14 10 -19 0 -26 22
-26 85 0 44 4 55 23 68 15 9 29 12 37 7 17 -11 30 -4 30 16 0 19 -44 18 -60
-1 -7 -8 -16 -15 -21 -15 -5 0 -9 7 -9 15 0 10 -10 15 -30 15 -16 0 -30 -4
-30 -9z"/>
<path d="M2114 696 c-27 -27 -34 -42 -34 -73 0 -36 20 -78 44 -95 6 -4 27 -8
47 -8 71 0 118 70 98 145 -20 72 -98 88 -155 31z m102 0 c24 -20 28 -31 28
-74 0 -82 -51 -117 -104 -74 -16 13 -24 32 -27 69 -5 45 -2 55 20 77 32 32 48
33 83 2z"/>
<path d="M2300 720 c0 -5 9 -10 20 -10 18 0 20 -7 20 -85 0 -69 -3 -85 -15
-85 -8 0 -15 -4 -15 -10 0 -5 20 -10 45 -10 25 0 45 5 45 10 0 6 -6 10 -14 10
-19 0 -26 22 -26 85 0 62 13 77 68 79 l37 1 3 -82 c2 -53 -1 -83 -8 -83 -5 0
-10 -4 -10 -10 0 -5 20 -10 45 -10 25 0 45 5 45 10 0 6 -9 10 -20 10 -18 0
-20 7 -20 76 0 41 -5 84 -10 95 -13 24 -66 26 -98 3 -20 -14 -23 -14 -28 0 -7
18 -64 23 -64 6z"/>
<path d="M650 510 c0 -5 9 -10 20 -10 19 0 20 -7 20 -148 0 -111 3 -149 13
-151 90 -14 104 -13 132 11 38 33 45 108 16 156 -18 27 -26 32 -60 32 -22 0
-43 -4 -46 -10 -3 -5 -13 -10 -21 -10 -11 0 -14 16 -14 70 l0 70 -30 0 c-16 0
-30 -4 -30 -10z m170 -150 c30 -30 28 -103 -5 -135 -25 -26 -54 -31 -85 -15
-14 8 -18 22 -19 74 -1 56 2 67 21 81 31 21 64 19 88 -5z"/>
<path d="M333 483 c-34 -90 -114 -268 -122 -271 -26 -9 -7 -22 29 -20 41 1 69
18 31 18 -24 0 -25 8 -9 61 l11 39 58 0 57 0 16 -47 c19 -57 19 -53 0 -53 -8
0 -12 -4 -9 -10 3 -5 24 -10 46 -10 21 0 39 5 39 10 0 6 -6 10 -14 10 -12 0
-65 133 -97 248 -13 45 -25 53 -36 25z m28 -95 c7 -29 13 -55 12 -57 -5 -7
-83 -7 -83 1 0 19 42 118 49 114 4 -3 14 -29 22 -58z"/>
<path d="M1516 413 c-14 -18 -16 -28 -8 -31 8 -2 12 -33 12 -92 0 -71 3 -89
16 -94 24 -9 62 -7 69 4 4 6 -7 10 -24 10 l-31 0 0 80 c0 44 0 83 0 88 1 4 9
6 20 4 10 -2 21 2 25 8 4 6 -4 10 -19 10 -19 0 -26 5 -26 20 0 27 -11 25 -34
-7z"/>
<path d="M500 390 c0 -5 7 -10 15 -10 12 0 15 -16 15 -85 0 -50 -4 -85 -10
-85 -5 0 -10 -4 -10 -8 0 -12 78 -14 85 -2 3 6 -3 10 -14 10 -19 0 -21 6 -21
69 0 60 3 72 22 85 14 10 26 12 39 6 12 -7 19 -5 23 6 9 23 -23 29 -55 10 -26
-15 -29 -15 -29 -2 0 11 -10 16 -30 16 -16 0 -30 -4 -30 -10z"/>
<path d="M961 386 c-55 -31 -68 -114 -25 -165 36 -43 93 -44 135 -2 24 25 29
37 29 81 0 41 -5 56 -25 75 -27 28 -75 33 -114 11z m88 -22 c29 -36 29 -116 1
-144 -27 -27 -56 -25 -85 5 -33 32 -36 114 -5 145 28 28 64 25 89 -6z"/>
<path d="M1135 390 c3 -5 13 -10 21 -10 11 0 14 -18 14 -85 0 -53 -4 -85 -11
-85 -5 0 -7 -4 -4 -10 3 -5 24 -10 46 -10 21 0 39 5 39 10 0 6 -9 10 -20 10
-18 0 -20 7 -20 69 0 60 3 72 22 85 15 11 26 12 40 5 15 -8 18 -6 18 11 0 24
-22 26 -55 4 -23 -15 -25 -15 -25 0 0 12 -9 16 -36 16 -21 0 -33 -4 -29 -10z"/>
<path d="M1331 376 c-40 -42 -40 -127 -1 -166 27 -27 90 -27 121 0 13 10 19
19 12 20 -6 0 -15 -4 -18 -10 -10 -16 -72 -12 -89 6 -22 22 -32 64 -17 74 7 4
37 13 67 20 59 14 65 25 34 58 -28 30 -80 29 -109 -2z m84 -6 c22 -24 20 -26
-38 -44 -43 -13 -47 -13 -47 3 0 25 29 61 49 61 10 0 26 -9 36 -20z"/>
<path d="M1630 390 c0 -5 6 -10 14 -10 10 0 15 -21 18 -79 3 -44 10 -87 18
-95 16 -21 59 -20 88 0 21 15 25 15 41 0 18 -17 41 -21 41 -8 0 4 -7 16 -15
26 -10 14 -15 45 -15 98 l0 78 -30 0 c-16 0 -30 -4 -30 -10 0 -5 6 -10 14 -10
19 0 26 -22 26 -85 0 -44 -4 -57 -22 -69 -27 -19 -59 -21 -76 -4 -7 7 -12 44
-12 95 l0 83 -30 0 c-16 0 -30 -4 -30 -10z"/>
<path d="M1880 391 c0 -5 9 -11 20 -14 18 -5 20 -14 20 -86 0 -65 -3 -81 -15
-81 -8 0 -15 -4 -15 -10 0 -13 77 -13 85 0 3 6 0 10 -8 10 -20 0 -27 22 -27
85 0 44 4 57 22 69 27 19 67 21 73 4 2 -7 5 -46 7 -85 3 -56 1 -73 -10 -73
-30 0 0 -17 32 -18 39 -2 57 13 26 21 -17 4 -20 14 -20 70 0 57 3 68 22 81 29
20 64 20 72 0 10 -26 7 -154 -4 -154 -5 0 -10 -4 -10 -10 0 -5 20 -10 45 -10
25 0 45 5 45 10 0 6 -9 10 -20 10 -18 0 -20 7 -20 79 0 59 -4 84 -16 95 -20
21 -58 20 -90 -1 -25 -16 -27 -16 -36 0 -11 21 -57 22 -84 2 -25 -19 -34 -19
-34 0 0 10 -10 15 -30 15 -16 0 -30 -4 -30 -9z"/>
</g>
</svg>
