<?xml version="1.0" standalone="no"?>
<!DOCTYPE svg PUBLIC "-//W3C//DTD SVG 20010904//EN"
 "http://www.w3.org/TR/2001/REC-SVG-20010904/DTD/svg10.dtd">
<svg version="1.0" xmlns="http://www.w3.org/2000/svg"
 width="225.000000pt" height="225.000000pt" viewBox="0 0 225.000000 225.000000"
 preserveAspectRatio="xMidYMid meet">

<g transform="translate(0.000000,225.000000) scale(0.100000,-0.100000)"
fill="#000000" stroke="none">
<path d="M930 2131 c-153 -34 -301 -105 -425 -205 -320 -257 -454 -676 -344
-1076 47 -172 173 -373 306 -487 347 -300 821 -342 1216 -106 94 56 254 208
310 295 130 200 184 395 174 623 -7 148 -34 260 -91 381 -133 281 -354 471
-651 560 -123 37 -364 44 -495 15z m329 -71 c378 -48 685 -315 794 -690 19
-64 22 -100 22 -240 0 -192 -15 -264 -90 -415 -120 -242 -356 -432 -620 -497
-114 -28 -314 -30 -417 -5 -316 78 -564 293 -678 589 -64 167 -76 388 -30 563
79 300 313 551 607 651 143 48 268 62 412 44z"/>
<path d="M1622 1817 l-53 -22 -35 -105 c-19 -58 -52 -173 -73 -256 -22 -83
-49 -182 -60 -221 l-21 -71 -98 -11 c-53 -7 -109 -14 -124 -17 -34 -7 -33 -17
-8 176 16 119 33 190 77 328 30 98 58 185 60 194 5 16 -16 17 -298 12 -322 -6
-355 -10 -433 -58 -47 -29 -105 -98 -130 -155 -19 -41 -19 -42 1 -69 31 -42
112 -86 234 -126 l110 -37 70 32 c38 18 69 36 69 40 0 13 -33 28 -188 80 -198
68 -218 81 -165 116 22 15 59 19 213 24 166 6 194 9 268 34 46 15 85 25 88 22
3 -3 -15 -74 -41 -159 -48 -161 -79 -300 -91 -406 -4 -35 -12 -66 -18 -68 -6
-2 -96 -15 -201 -29 -167 -21 -197 -28 -255 -57 -83 -42 -143 -113 -160 -191
-16 -69 -8 -103 35 -143 50 -47 122 -68 230 -68 224 0 409 118 480 307 12 32
25 49 39 52 44 9 207 28 210 24 2 -2 -3 -51 -10 -109 -22 -173 -19 -257 12
-318 l26 -53 -63 -95 -63 -95 30 -24 29 -23 65 99 65 99 42 0 c24 0 65 9 93
19 110 42 260 179 260 238 0 24 0 24 -42 -11 -53 -46 -112 -74 -168 -81 -84
-11 -83 -2 13 157 l88 143 -27 22 -28 22 -85 -140 c-47 -76 -88 -139 -92 -139
-28 0 -46 180 -26 271 6 29 15 39 48 54 141 64 284 391 267 608 -6 68 -36 148
-70 184 -26 28 -29 28 -96 0z m44 -142 c37 -56 25 -205 -27 -324 -19 -45 -129
-168 -129 -144 0 6 25 116 55 246 30 129 55 238 55 241 0 16 31 3 46 -19z
m-696 -735 c0 -5 -9 -34 -21 -64 -26 -71 -95 -135 -170 -158 -135 -42 -263
-48 -315 -14 -24 16 -26 22 -20 59 4 23 15 53 24 66 41 56 59 62 268 87 110
13 204 26 209 28 18 7 25 6 25 -4z"/>
<path d="M1840 993 c-122 -62 -36 -245 91 -193 41 17 61 51 61 102 -1 78 -82
126 -152 91z m111 -32 c37 -37 38 -79 3 -120 -54 -65 -154 -28 -154 57 0 85
91 122 151 63z"/>
<path d="M1840 900 c0 -47 3 -60 15 -60 8 0 15 9 15 20 0 12 7 20 16 20 9 0
18 -9 21 -20 3 -11 11 -20 19 -20 10 0 11 6 4 25 -7 18 -6 32 3 46 10 17 9 22
-7 35 -11 8 -35 14 -53 14 l-33 0 0 -60z m65 20 c0 -8 -8 -16 -17 -18 -13 -2
-18 3 -18 18 0 15 5 20 18 18 9 -2 17 -10 17 -18z"/>
</g>
</svg>
